<svg width="20" height="20" viewBox="0 0 20 20" fill="none" xmlns="http://www.w3.org/2000/svg">
  <path d="M15.464 9.086C15.858 9.481 15.858 10.121 15.464 10.515C15.07 10.91 14.43 10.91 14.036 10.515C13.641 10.121 13.641 9.481 14.036 9.086C14.43 8.692 15.07 8.692 15.464 9.086Z" fill="#151515"/>
  <path d="M5.168 4.26C4.042 4.322 3.134 5.207 2.991 6.326C2.709 8.504 2.709 10.709 2.991 12.887C3.134 14.006 4.042 14.891 5.168 14.953C8.21 15.123 11.259 15.09 14.297 14.857C14.601 14.836 14.891 14.72 15.126 14.526C16.166 13.66 19.09 11.096 19.089 9.606C19.089 8.117 16.166 5.552 15.126 4.688C14.891 4.493 14.601 4.378 14.297 4.357C11.259 4.123 8.21 4.09 5.168 4.26Z" stroke="#151515" stroke-width="1.5"/>
  <path d="M6.415 8.8L6.423 10.622" stroke="#151515" stroke-width="1.5" stroke-linecap="round" stroke-linejoin="round"/>
</svg>
